<svg xmlns="http://www.w3.org/2000/svg" width="43" height="43" viewBox="0 0 43 43">
    <g fill="#E74C3C" fill-rule="evenodd">
        <path d="M21.053 2.105c-10.448 0-18.948 8.5-18.948 18.948C2.105 31.5 10.605 40 21.053 40 31.5 40 40 31.5 40 21.053c0-10.448-8.5-18.948-18.947-18.948m0 40C9.444 42.105 0 32.661 0 21.053 0 9.444 9.444 0 21.053 0 32.66 0 42.105 9.444 42.105 21.053c0 11.608-9.444 21.052-21.052 21.052"/>
        <path d="M18.803 14.302v7.5a2.25 2.25 0 0 0 4.5 0v-7.5a2.25 2.25 0 0 0-4.5 0zM18.803 28.302a2.25 2.25 0 1 0 4.5 0 2.25 2.25 0 0 0-4.5 0z"/>
    </g>
</svg>
